<svg viewBox="0 0 330 200" xmlns="http://www.w3.org/2000/svg"><g><g><g><g><g><line x1="58" y1="178" x2="53" y2="178" style="visibility: inherit;" fill="rgb(0, 0, 0)" stroke="rgb(204, 204, 204)" stroke-width="1px"></line><line x1="58" y1="161.8181818181818" x2="53" y2="161.8181818181818" style="visibility: inherit;" fill="rgb(0, 0, 0)" stroke="rgb(204, 204, 204)" stroke-width="1px"></line><line x1="58" y1="145.63636363636363" x2="53" y2="145.63636363636363" style="visibility: inherit;" fill="rgb(0, 0, 0)" stroke="rgb(204, 204, 204)" stroke-width="1px"></line><line x1="58" y1="129.45454545454544" x2="53" y2="129.45454545454544" style="visibility: inherit;" fill="rgb(0, 0, 0)" stroke="rgb(204, 204, 204)" stroke-width="1px"></line><line x1="58" y1="113.27272727272727" x2="53" y2="113.27272727272727" style="visibility: inherit;" fill="rgb(0, 0, 0)" stroke="rgb(204, 204, 204)" stroke-width="1px"></line><line x1="58" y1="97.0909090909091" x2="53" y2="97.0909090909091" style="visibility: inherit;" fill="rgb(0, 0, 0)" stroke="rgb(204, 204, 204)" stroke-width="1px"></line><line x1="58" y1="80.90909090909092" x2="53" y2="80.90909090909092" style="visibility: inherit;" fill="rgb(0, 0, 0)" stroke="rgb(204, 204, 204)" stroke-width="1px"></line><line x1="58" y1="64.72727272727275" x2="53" y2="64.72727272727275" style="visibility: inherit;" fill="rgb(0, 0, 0)" stroke="rgb(204, 204, 204)" stroke-width="1px"></line><line x1="58" y1="48.54545454545456" x2="53" y2="48.54545454545456" style="visibility: inherit;" fill="rgb(0, 0, 0)" stroke="rgb(204, 204, 204)" stroke-width="1px"></line><line x1="58" y1="32.363636363636374" x2="53" y2="32.363636363636374" style="visibility: inherit;" fill="rgb(0, 0, 0)" stroke="rgb(204, 204, 204)" stroke-width="1px"></line><line x1="58" y1="16.181818181818187" x2="53" y2="16.181818181818187" style="visibility: inherit;" fill="rgb(0, 0, 0)" stroke="rgb(204, 204, 204)" stroke-width="1px"></line><line x1="58" y1="0" x2="53" y2="0" style="visibility: inherit;" fill="rgb(0, 0, 0)" stroke="rgb(204, 204, 204)" stroke-width="1px"></line></g><g transform="translate(48, 0)"><text x="0" y="178" dx="0em" dy="0.3em" style="text-anchor: end; visibility: hidden; font-family: &quot;Helvetica Neue&quot;, sans-serif; font-size: 12px; font-weight: 200;" fill="rgb(50, 49, 63)" stroke="none" stroke-width="1px">-0.1</text><text x="0" y="161.8181818181818" dx="0em" dy="0.3em" style="text-anchor: end; visibility: inherit; font-family: &quot;Helvetica Neue&quot;, sans-serif; font-size: 12px; font-weight: 200;" fill="rgb(50, 49, 63)" stroke="none" stroke-width="1px">0</text><text x="0" y="145.63636363636363" dx="0em" dy="0.3em" style="text-anchor: end; visibility: hidden; font-family: &quot;Helvetica Neue&quot;, sans-serif; font-size: 12px; font-weight: 200;" fill="rgb(50, 49, 63)" stroke="none" stroke-width="1px">0.1</text><text x="0" y="129.45454545454544" dx="0em" dy="0.3em" style="text-anchor: end; visibility: inherit; font-family: &quot;Helvetica Neue&quot;, sans-serif; font-size: 12px; font-weight: 200;" fill="rgb(50, 49, 63)" stroke="none" stroke-width="1px">0.2</text><text x="0" y="113.27272727272727" dx="0em" dy="0.3em" style="text-anchor: end; visibility: hidden; font-family: &quot;Helvetica Neue&quot;, sans-serif; font-size: 12px; font-weight: 200;" fill="rgb(50, 49, 63)" stroke="none" stroke-width="1px">0.3</text><text x="0" y="97.0909090909091" dx="0em" dy="0.3em" style="text-anchor: end; visibility: inherit; font-family: &quot;Helvetica Neue&quot;, sans-serif; font-size: 12px; font-weight: 200;" fill="rgb(50, 49, 63)" stroke="none" stroke-width="1px">0.4</text><text x="0" y="80.90909090909092" dx="0em" dy="0.3em" style="text-anchor: end; visibility: hidden; font-family: &quot;Helvetica Neue&quot;, sans-serif; font-size: 12px; font-weight: 200;" fill="rgb(50, 49, 63)" stroke="none" stroke-width="1px">0.5</text><text x="0" y="64.72727272727275" dx="0em" dy="0.3em" style="text-anchor: end; visibility: inherit; font-family: &quot;Helvetica Neue&quot;, sans-serif; font-size: 12px; font-weight: 200;" fill="rgb(50, 49, 63)" stroke="none" stroke-width="1px">0.6</text><text x="0" y="48.54545454545456" dx="0em" dy="0.3em" style="text-anchor: end; visibility: hidden; font-family: &quot;Helvetica Neue&quot;, sans-serif; font-size: 12px; font-weight: 200;" fill="rgb(50, 49, 63)" stroke="none" stroke-width="1px">0.7</text><text x="0" y="32.363636363636374" dx="0em" dy="0.3em" style="text-anchor: end; visibility: inherit; font-family: &quot;Helvetica Neue&quot;, sans-serif; font-size: 12px; font-weight: 200;" fill="rgb(50, 49, 63)" stroke="none" stroke-width="1px">0.8</text><text x="0" y="16.181818181818187" dx="0em" dy="0.3em" style="text-anchor: end; visibility: hidden; font-family: &quot;Helvetica Neue&quot;, sans-serif; font-size: 12px; font-weight: 200;" fill="rgb(50, 49, 63)" stroke="none" stroke-width="1px">0.9</text><text x="0" y="0" dx="0em" dy="0.3em" style="text-anchor: end; visibility: hidden; font-family: &quot;Helvetica Neue&quot;, sans-serif; font-size: 12px; font-weight: 200;" fill="rgb(50, 49, 63)" stroke="none" stroke-width="1px">1</text></g><line x1="58" y1="0" x2="58" y2="178" fill="rgb(0, 0, 0)" stroke="rgb(204, 204, 204)" stroke-width="1px"></line></g></g><g transform="translate(58, 0)" clip-path="url(#clip_0)"><clipPath id="clip_0"><rect width="272" height="178"></rect></clipPath><g><g><g><line x1="0" y1="0" x2="0" y2="178" fill="rgb(0, 0, 0)" stroke="rgb(60, 60, 60)" stroke-width="1px" opacity="0.25"></line><line x1="24.727272727272727" y1="0" x2="24.727272727272727" y2="178" fill="rgb(0, 0, 0)" stroke="rgb(60, 60, 60)" stroke-width="1px" opacity="0.25"></line><line x1="49.45454545454545" y1="0" x2="49.45454545454545" y2="178" fill="rgb(0, 0, 0)" stroke="rgb(60, 60, 60)" stroke-width="1px" opacity="0.25"></line><line x1="74.18181818181817" y1="0" x2="74.18181818181817" y2="178" fill="rgb(0, 0, 0)" stroke="rgb(60, 60, 60)" stroke-width="1px" opacity="0.25"></line><line x1="98.9090909090909" y1="0" x2="98.9090909090909" y2="178" fill="rgb(0, 0, 0)" stroke="rgb(60, 60, 60)" stroke-width="1px" opacity="0.25"></line><line x1="123.63636363636363" y1="0" x2="123.63636363636363" y2="178" fill="rgb(0, 0, 0)" stroke="rgb(60, 60, 60)" stroke-width="1px" opacity="0.25"></line><line x1="148.36363636363635" y1="0" x2="148.36363636363635" y2="178" fill="rgb(0, 0, 0)" stroke="rgb(60, 60, 60)" stroke-width="1px" opacity="0.25"></line><line x1="173.0909090909091" y1="0" x2="173.0909090909091" y2="178" fill="rgb(0, 0, 0)" stroke="rgb(60, 60, 60)" stroke-width="1px" opacity="0.25"></line><line x1="197.8181818181818" y1="0" x2="197.8181818181818" y2="178" fill="rgb(0, 0, 0)" stroke="rgb(60, 60, 60)" stroke-width="1px" opacity="0.25"></line><line x1="222.54545454545456" y1="0" x2="222.54545454545456" y2="178" fill="rgb(0, 0, 0)" stroke="rgb(60, 60, 60)" stroke-width="1px" opacity="0.25"></line><line x1="247.27272727272725" y1="0" x2="247.27272727272725" y2="178" fill="rgb(0, 0, 0)" stroke="rgb(60, 60, 60)" stroke-width="1px" opacity="0.25"></line><line x1="272" y1="0" x2="272" y2="178" fill="rgb(0, 0, 0)" stroke="rgb(60, 60, 60)" stroke-width="1px" opacity="0.25"></line></g><g><line x1="0" y1="178" x2="272" y2="178" fill="rgb(0, 0, 0)" stroke="rgb(60, 60, 60)" stroke-width="1px" opacity="0.25"></line><line x1="0" y1="161.8181818181818" x2="272" y2="161.8181818181818" fill="rgb(0, 0, 0)" stroke="rgb(60, 60, 60)" stroke-width="1px" opacity="0.25"></line><line x1="0" y1="145.63636363636363" x2="272" y2="145.63636363636363" fill="rgb(0, 0, 0)" stroke="rgb(60, 60, 60)" stroke-width="1px" opacity="0.25"></line><line x1="0" y1="129.45454545454544" x2="272" y2="129.45454545454544" fill="rgb(0, 0, 0)" stroke="rgb(60, 60, 60)" stroke-width="1px" opacity="0.25"></line><line x1="0" y1="113.27272727272727" x2="272" y2="113.27272727272727" fill="rgb(0, 0, 0)" stroke="rgb(60, 60, 60)" stroke-width="1px" opacity="0.25"></line><line x1="0" y1="97.0909090909091" x2="272" y2="97.0909090909091" fill="rgb(0, 0, 0)" stroke="rgb(60, 60, 60)" stroke-width="1px" opacity="0.25"></line><line x1="0" y1="80.90909090909092" x2="272" y2="80.90909090909092" fill="rgb(0, 0, 0)" stroke="rgb(60, 60, 60)" stroke-width="1px" opacity="0.25"></line><line x1="0" y1="64.72727272727275" x2="272" y2="64.72727272727275" fill="rgb(0, 0, 0)" stroke="rgb(60, 60, 60)" stroke-width="1px" opacity="0.25"></line><line x1="0" y1="48.54545454545456" x2="272" y2="48.54545454545456" fill="rgb(0, 0, 0)" stroke="rgb(60, 60, 60)" stroke-width="1px" opacity="0.25"></line><line x1="0" y1="32.363636363636374" x2="272" y2="32.363636363636374" fill="rgb(0, 0, 0)" stroke="rgb(60, 60, 60)" stroke-width="1px" opacity="0.25"></line><line x1="0" y1="16.181818181818187" x2="272" y2="16.181818181818187" fill="rgb(0, 0, 0)" stroke="rgb(60, 60, 60)" stroke-width="1px" opacity="0.25"></line><line x1="0" y1="0" x2="272" y2="0" fill="rgb(0, 0, 0)" stroke="rgb(60, 60, 60)" stroke-width="1px" opacity="0.25"></line></g></g></g><g><g><line x1="0" y1="161.8181818181818" x2="272" y2="161.8181818181818" fill="rgb(0, 0, 0)" stroke="rgb(153, 153, 153)" stroke-width="1.5px"></line></g></g><g><g><line x1="24.727272727272727" y1="0" x2="24.727272727272727" y2="178" fill="rgb(0, 0, 0)" stroke="rgb(153, 153, 153)" stroke-width="1.5px"></line></g></g><g><g><g><g><g><path stroke="rgb(0, 119, 187)" stroke-width="2px" d="M24.727272727272727,131.3640004938299L49.45454545454545,106.25183979218657L74.18181818181817,92.29536479833176L98.9090909090909,81.35891078707368L123.63636363636363,73.39668715468689L148.36363636363635,67.67936031151223L173.0909090909091,63.36357616282842L197.8181818181818,60.11542118399943L222.54545454545456,57.59152595616608L247.27272727272725,55.60841557637016" style="fill: none;" fill="none"></path></g><g><path stroke="rgb(255, 112, 67)" stroke-width="2px" d="M24.727272727272727,143.30078788779L49.45454545454545,128.4084571728652L74.18181818181817,104.78916202659731L98.9090909090909,88.31061544633884L123.63636363636363,77.14141718302007L148.36363636363635,69.53491888923966L173.0909090909091,64.2502148880691L197.8181818181818,60.523941120206416L222.54545454545456,57.783755769966476L247.27272727272725,55.698323669878164" style="fill: none;" fill="none"></path></g><g><path stroke="rgb(187, 187, 187)" stroke-width="2px" d="M24.727272727272727,145.42330279946327L49.45454545454545,129.18417264961386L74.18181818181817,118.46681484790149L98.9090909090909,101.24401342806054L123.63636363636363,83.99618684067597L148.36363636363635,72.9715657692187L173.0909090909091,66.03954023094367L197.8181818181818,61.51179809945734L222.54545454545456,58.378986995885924L247.27272727272725,56.09851169424422" style="fill: none;" fill="none"></path></g><g><path stroke="rgb(0, 153, 136)" stroke-width="2px" d="M24.727272727272727,145.63636339523575L49.45454545454545,132.3335604826835L74.18181818181817,106.19428237012013L98.9090909090909,88.75519104555927L123.63636363636363,78.74890627527145L148.36363636363635,72.45613671405451L173.0909090909091,68.1268517576286L197.8181818181818,64.86535661845306L222.54545454545456,62.25840722179602L247.27272727272725,60.00784654278185" style="fill: none;" fill="none"></path></g><g><path stroke="rgb(238, 51, 119)" stroke-width="2px" d="M24.727272727272727,144.16381833228198L49.45454545454545,119.27415989000687L74.18181818181817,100.33998777837611L98.9090909090909,84.66916120855169L123.63636363636363,73.94119216445404L148.36363636363635,66.652216235209L173.0909090909091,61.65037799619533L197.8181818181818,58.16767027094437L222.54545454545456,55.53610643011346L247.27272727272725,53.43699583036813" style="fill: none;" fill="none"></path></g><g><path stroke="rgb(51, 187, 238)" stroke-width="2px" d="M24.727272727272727,139.62212164293635L49.45454545454545,108.56145818463781L74.18181818181817,90.52461272655039L98.9090909090909,79.69917308808093L123.63636363636363,70.9829422777763L148.36363636363635,64.57646285401894L173.0909090909091,60.094770412991664L197.8181818181818,56.83457635126044L222.54545454545456,54.38750164848666L247.27272727272725,52.504252575462246" style="fill: none;" fill="none"></path></g><g><path stroke="rgb(204, 51, 17)" stroke-width="2px" d="M24.727272727272727,75.7390004938299L49.45454545454545,57.394551919265226L74.18181818181817,49.526381229425425L98.9090909090909,44.68681294650321L123.63636363636363,41.36792837712349L148.36363636363635,38.93426633939859L173.0909090909091,37.01276827263078L197.8181818181818,35.44063820019602L222.54545454545456,34.10358787270263L247.27272727272725,32.931244347319875" style="fill: none;" fill="none"></path></g><g><path stroke="rgb(0, 119, 187)" stroke-width="2px" d="M24.727272727272727,79.64691183783792L49.45454545454545,58.77405055544595L74.18181818181817,50.27085421257871L98.9090909090909,45.23541149927334L123.63636363636363,41.811933392764274L148.36363636363635,39.233846403160044L173.0909090909091,37.05810283295284L197.8181818181818,35.30184806819318L222.54545454545456,33.57080451195844L247.27272727272725,32.151599169649785" style="fill: none;" fill="none"></path></g><g><path stroke="rgb(255, 112, 67)" stroke-width="2px" d="M24.727272727272727,79.12909453565425L49.45454545454545,61.49596718224613L74.18181818181817,53.21258719865379L98.9090909090909,48.09688443327971L123.63636363636363,44.32014867790295L148.36363636363635,41.409364305192895L173.0909090909091,39.089725118364555L197.8181818181818,37.270603008905L222.54545454545456,35.735729682191476L247.27272727272725,34.45140626422662" style="fill: none;" fill="none"></path></g><g><path stroke="rgb(187, 187, 187)" stroke-width="2px" d="M24.727272727272727,75.74709274552087L49.45454545454545,57.12620311162691L74.18181818181817,49.14864032962993L98.9090909090909,44.25213643135555L123.63636363636363,40.9100552720833L148.36363636363635,38.518007138332734L173.0909090909091,36.64239456970762L197.8181818181818,35.103540142241314L222.54545454545456,33.74468481471715L247.27272727272725,32.67010838452856" style="fill: none;" fill="none"></path></g><g><path stroke="rgb(0, 153, 136)" stroke-width="2px" d="M24.727272727272727,74.12351120602001L49.45454545454545,56.75334586338563L74.18181818181817,49.38707486154419L98.9090909090909,45.07135337248525L123.63636363636363,42.16704673717754L148.36363636363635,40.01254440177502L173.0909090909091,38.30545921214531L197.8181818181818,36.85587242854717L222.54545454545456,35.59319988013121L247.27272727272725,34.47042674720092" style="fill: none;" fill="none"></path></g><g><path stroke="rgb(238, 51, 119)" stroke-width="2px" d="M24.727272727272727,79.4985796104778L49.45454545454545,59.51740320433271L74.18181818181817,51.09040634751544L98.9090909090909,46.29803873877475L123.63636363636363,42.94707645031866L148.36363636363635,40.24576681985914L173.0909090909091,38.11862825084356L197.8181818181818,36.26447216118697L222.54545454545456,34.69261351050483L247.27272727272725,33.32230164119906" style="fill: none;" fill="none"></path></g><g><path stroke="rgb(51, 187, 238)" stroke-width="2px" d="M24.727272727272727,43.78800337964839L49.45454545454545,34.925082867795794L74.18181818181817,29.446177613093823L98.9090909090909,26.04863366341209L123.63636363636363,23.723781238586838L148.36363636363635,21.97949316568318L173.0909090909091,20.654659150703452L197.8181818181818,19.537179291448552L222.54545454545456,18.664138176087533L247.27272727272725,17.941935096686706" style="fill: none;" fill="none"></path></g><g><path stroke="rgb(204, 51, 17)" stroke-width="2px" d="M24.727272727272727,50.570882450450554L49.45454545454545,39.64815112677488L74.18181818181817,33.57996869839192L98.9090909090909,29.50352972403249L123.63636363636363,26.61833678214805L148.36363636363635,24.462985834195024L173.0909090909091,22.86196559927822L197.8181818181818,21.65842063795992L222.54545454545456,20.534157816854588L247.27272727272725,19.782239555532414" style="fill: none;" fill="none"></path></g><g><path stroke="rgb(0, 119, 187)" stroke-width="2px" d="M24.727272727272727,49.77527618408206L49.45454545454545,38.67218723351306L74.18181818181817,32.617593468452014L98.9090909090909,28.589289249344347L123.63636363636363,25.76607640733721L148.36363636363635,23.56433984854354L173.0909090909091,21.91360631324767L197.8181818181818,20.62737323547597L222.54545454545456,19.566642227303646L247.27272727272725,18.683115182609242" style="fill: none;" fill="none"></path></g><g><path stroke="rgb(255, 112, 67)" stroke-width="2px" d="M24.727272727272727,47.790301821448594L49.45454545454545,37.95647386800161L74.18181818181817,32.05926156442112L98.9090909090909,28.01239196390395L123.63636363636363,25.33528813796275L148.36363636363635,23.258853902526113L173.0909090909091,21.740494166167906L197.8181818181818,20.597105424290987L222.54545454545456,19.612902815060465L247.27272727272725,18.843173008238324" style="fill: none;" fill="none"></path></g><g><path stroke="rgb(187, 187, 187)" stroke-width="2px" d="M24.727272727272727,48.804360303011805L49.45454545454545,38.490139300172984L74.18181818181817,32.313769188794225L98.9090909090909,28.232976777907368L123.63636363636363,25.414580101621226L148.36363636363635,23.415768837241416L173.0909090909091,21.826175233247284L197.8181818181818,20.534914802315825L222.54545454545456,19.522440581531328L247.27272727272725,18.665384705300625" style="fill: none;" fill="none"></path></g><g><path stroke="rgb(0, 153, 136)" stroke-width="2px" d="M24.727272727272727,49.07136602835223L49.45454545454545,38.317195149985224L74.18181818181817,32.28272510592262L98.9090909090909,28.32526975097187L123.63636363636363,25.546385239941145L148.36363636363635,23.504719868827607L173.0909090909091,21.96508845928716L197.8181818181818,20.813715229051127L222.54545454545456,19.864039074689686L247.27272727272725,19.131084060161044" style="fill: none;" fill="none"></path></g><g><path stroke="rgb(238, 51, 119)" stroke-width="2px" d="M24.727272727272727,32.406786680221586L49.45454545454545,26.156559098850607L74.18181818181817,23.420372770093593L98.9090909090909,21.69639806497227L123.63636363636363,20.581942690892106L148.36363636363635,19.655734750354668L173.0909090909091,19.126244147805494L197.8181818181818,18.550474648588306L222.54545454545456,18.237420144935697L247.27272727272725,17.928974575892425" style="fill: none;" fill="none"></path></g><g><path stroke="rgb(51, 187, 238)" stroke-width="2px" d="M24.727272727272727,37.16964103958824L49.45454545454545,28.986019966277212L74.18181818181817,25.085560581016182L98.9090909090909,22.768612017127907L123.63636363636363,21.465167747702964L148.36363636363635,20.368671068591937L173.0909090909091,19.71115995845554L197.8181818181818,19.169537742944044L222.54545454545456,18.770893736967736L247.27272727272725,18.384514174184886" style="fill: none;" fill="none"></path></g><g><path stroke="rgb(204, 51, 17)" stroke-width="2px" d="M24.727272727272727,36.81093920360914L49.45454545454545,28.9644450491125L74.18181818181817,25.379089979603464L98.9090909090909,23.375913684460585L123.63636363636363,22.004416101054517L148.36363636363635,20.969083772577704L173.0909090909091,20.277583008956668L197.8181818181818,19.665716470312844L222.54545454545456,19.181005853694046L247.27272727272725,18.818434779910575" style="fill: none;" fill="none"></path></g><g><path stroke="rgb(0, 119, 187)" stroke-width="2px" d="M24.727272727272727,36.889151443134665L49.45454545454545,28.779701306061327L74.18181818181817,25.512891545587678L98.9090909090909,23.38873700701936L123.63636363636363,22.14619718006483L148.36363636363635,21.000455360724686L173.0909090909091,20.20725848848832L197.8181818181818,19.562557115041358L222.54545454545456,19.194725250481724L247.27272727272725,18.806010538480507" style="fill: none;" fill="none"></path></g><g><path stroke="rgb(255, 112, 67)" stroke-width="2px" d="M24.727272727272727,35.07409507578072L49.45454545454545,28.034999546679586L74.18181818181817,25.02154752584471L98.9090909090909,23.221108343671375L123.63636363636363,22.10859368692914L148.36363636363635,21.36563024100309L173.0909090909091,20.662993174739626L197.8181818181818,20.203744472359887L222.54545454545456,19.58881483846926L247.27272727272725,19.275941141125486" style="fill: none;" fill="none"></path></g><g><path stroke="rgb(187, 187, 187)" stroke-width="2px" d="M24.727272727272727,38.33203174851158L49.45454545454545,29.300550791350275L74.18181818181817,25.532704974370887L98.9090909090909,23.437865890841437L123.63636363636363,22.064062578055L148.36363636363635,21.150811306274505L173.0909090909091,20.556553279391494L197.8181818181818,20.135118253215325L222.54545454545456,19.6242008468719L247.27272727272725,19.171185781664803" style="fill: none;" fill="none"></path></g></g></g></g><g opacity="0.2"><g><g><g><path stroke="rgb(0, 119, 187)" stroke-width="2px" d="M24.727272727272727,131.3640004938299L49.45454545454545,91.18454337120058L74.18181818181817,78.89714880423112L98.9090909090909,68.49764086983423L123.63636363636363,63.001207980242654L148.36363636363635,59.77023904973811L173.0909090909091,57.1919357776642L197.8181818181818,55.37958004257898L222.54545454545456,53.869270736520946L247.27272727272725,52.66372778198938" style="fill: none;" fill="none"></path></g><g><path stroke="rgb(255, 112, 67)" stroke-width="2px" d="M24.727272727272727,143.30078788779L49.45454545454545,119.47305874391037L74.18181818181817,82.11463868618013L98.9090909090909,68.93184466795488L123.63636363636363,62.55891193043102L148.36363636363635,59.012393409555614L173.0909090909091,56.69300361113115L197.8181818181818,55.09099819443445L222.54545454545456,53.742514631964966L247.27272727272725,52.601700045845746" style="fill: none;" fill="none"></path></g><g><path stroke="rgb(187, 187, 187)" stroke-width="2px" d="M24.727272727272727,145.42330279946327L49.45454545454545,119.44069455970418L74.18181818181817,108.17815135825765L98.9090909090909,80.98999895832758L123.63636363636363,61.47742444818671L148.36363636363635,57.72054596380754L173.0909090909091,56.12663279880178L197.8181818181818,54.91030660542576L222.54545454545456,53.75869913534687L247.27272727272725,52.71227164701985" style="fill: none;" fill="none"></path></g><g><path stroke="rgb(0, 153, 136)" stroke-width="2px" d="M24.727272727272727,145.63636339523575L49.45454545454545,124.35187873515216L74.18181818181817,81.10057538205928L98.9090909090909,68.24681964787571L123.63636363636363,65.6847008791837L148.36363636363635,63.75097101384944L173.0909090909091,61.93590500138025L197.8181818181818,60.110065395181834L222.54545454545456,58.41366323557769L247.27272727272725,56.66602622378957" style="fill: none;" fill="none"></path></g><g><path stroke="rgb(238, 51, 119)" stroke-width="2px" d="M24.727272727272727,144.16381833228198L49.45454545454545,104.34036482464184L74.18181818181817,82.16318255121058L98.9090909090909,66.24026916243815L123.63636363636363,59.934755780480145L148.36363636363635,56.56893849372865L173.0909090909091,54.49766928499396L197.8181818181818,53.089848973534345L222.54545454545456,51.65506091984837L247.27272727272725,50.320061228492065" style="fill: none;" fill="none"></path></g><g><path stroke="rgb(51, 187, 238)" stroke-width="2px" d="M24.727272727272727,139.62212164293635L49.45454545454545,89.92506010965869L74.18181818181817,73.20924108678645L98.9090909090909,66.96845607324082L123.63636363636363,59.6030313318426L148.36363636363635,55.713995478369995L173.0909090909091,53.685878515243544L197.8181818181818,52.08118211139333L222.54545454545456,50.77854178168559L247.27272727272725,49.70784718340096" style="fill: none;" fill="none"></path></g><g><path stroke="rgb(204, 51, 17)" stroke-width="2px" d="M24.727272727272727,75.7390004938299L49.45454545454545,46.387882774526446L74.18181818181817,41.972937367179185L98.9090909090909,38.99548064578664L123.63636363636363,37.034792683341294L148.36363636363635,35.567635622891515L173.0909090909091,34.26499529318377L197.8181818181818,33.14845746213743L222.54545454545456,32.13169834830546L247.27272727272725,31.190450841730325" style="fill: none;" fill="none"></path></g><g><path stroke="rgb(0, 119, 187)" stroke-width="2px" d="M24.727272727272727,79.64691183783792L49.45454545454545,46.25033378601077L74.18181818181817,42.10778572342613L98.9090909090909,39.313730868426234L123.63636363636363,37.34224037690598L148.36363636363635,35.66742398522118L173.0909090909091,33.94675471565941L197.8181818181818,32.74121176112783L222.54545454545456,31.017851504412562L247.27272727272725,30.044244636188864" style="fill: none;" fill="none"></path></g><g><path stroke="rgb(255, 112, 67)" stroke-width="2px" d="M24.727272727272727,79.12909453565425L49.45454545454545,50.916090770201265L74.18181818181817,45.26054241440514L98.9090909090909,42.0808179811998L123.63636363636363,39.38924247568306L148.36363636363635,37.382701635360746L173.0909090909091,35.772603966973065L197.8181818181818,34.61830550974068L222.54545454545456,33.47208965908399L247.27272727272725,32.54433566873726" style="fill: none;" fill="none"></path></g><g><path stroke="rgb(187, 187, 187)" stroke-width="2px" d="M24.727272727272727,75.74709274552087L49.45454545454545,45.95366933129051L74.18181818181817,41.49018005891281L98.9090909090909,38.49384784698489L123.63636363636363,36.54663411053744L148.36363636363635,35.20894343202767L173.0909090909091,33.96023858677259L197.8181818181818,32.8598756139929L222.54545454545456,31.74063715067777L247.27272727272725,31.07448762113401" style="fill: none;" fill="none"></path></g><g><path stroke="rgb(0, 153, 136)" stroke-width="2px" d="M24.727272727272727,74.12351120602001L49.45454545454545,46.331246657805025L74.18181818181817,42.31545469977641L98.9090909090909,39.99606490135196L123.63636363636363,38.37518399411982L148.36363636363635,37.03209205107257L173.0909090909091,35.86430007761177L197.8181818181818,34.74236098202792L222.54545454545456,33.731003132733434L247.27272727272725,32.80323949727145" style="fill: none;" fill="none"></path></g><g><path stroke="rgb(238, 51, 119)" stroke-width="2px" d="M24.727272727272727,79.4985796104778L49.45454545454545,47.52869736064565L74.18181818181817,43.00048936497083L98.9090909090909,40.662214430895716L123.63636363636363,38.57206008651042L148.36363636363635,36.50888312946668L173.0909090909091,35.07678606293419L197.8181818181818,33.5610947825692L222.54545454545456,32.37442731857303L247.27272727272725,31.28754821690646" style="fill: none;" fill="none"></path></g><g><path stroke="rgb(51, 187, 238)" stroke-width="2px" d="M24.727272727272727,43.78800337964839L49.45454545454545,29.607330560684233L74.18181818181817,24.18642856857994L98.9090909090909,22.053121978586404L123.63636363636363,20.688453912735014L148.36363636363635,19.56651481715116L173.0909090909091,18.760125311938197L197.8181818181818,17.907882928848295L222.54545454545456,17.3765721104362L247.27272727272725,16.869547692212194" style="fill: none;" fill="none"></path></g><g><path stroke="rgb(204, 51, 17)" stroke-width="2px" d="M24.727272727272727,50.570882450450554L49.45454545454545,33.09451233256948L74.18181818181817,27.754513567144244L98.9090909090909,24.709637490185827L123.63636363636363,22.85142887722364L148.36363636363635,21.481359546834796L173.0909090909091,20.572481047023444L197.8181818181818,19.903640530326157L222.54545454545456,18.87608853253451L247.27272727272725,18.66572856903079" style="fill: none;" fill="none"></path></g><g><path stroke="rgb(0, 119, 187)" stroke-width="2px" d="M24.727272727272727,49.77527618408206L49.45454545454545,32.01033386317167L74.18181818181817,26.80518345399338L98.9090909090909,23.85200348767367L123.63636363636363,22.08008972081271L148.36363636363635,20.51854556257078L173.0909090909091,19.553030946038007L197.8181818181818,18.75203306024727L222.54545454545456,18.002270026640474L247.27272727272725,17.371180491013973" style="fill: none;" fill="none"></path></g><g><path stroke="rgb(255, 112, 67)" stroke-width="2px" d="M24.727272727272727,47.790301821448594L49.45454545454545,32.05617709593341L74.18181818181817,26.397937752983808L98.9090909090909,23.253273313695757L123.63636363636363,21.8400613828139L148.36363636363635,20.386397838592558L173.0909090909091,19.569215449419886L197.8181818181818,18.93003366210246L222.54545454545456,18.161395137960284L247.27272727272725,17.700213952498018" style="fill: none;" fill="none"></path></g><g><path stroke="rgb(187, 187, 187)" stroke-width="2px" d="M24.727272727272727,48.804360303011805L49.45454545454545,32.3016066984697L74.18181818181817,26.384453881870627L98.9090909090909,23.433964902704446L123.63636363636363,21.73488140106204L148.36363636363635,20.65069328654897L173.0909090909091,19.553030946038007L197.8181818181818,18.65224469791761L222.54545454545456,18.029237768866807L247.27272727272725,17.39275661381808" style="fill: none;" fill="none"></path></g><g><path stroke="rgb(0, 153, 136)" stroke-width="2px" d="M24.727272727272727,49.07136602835223L49.45454545454545,31.864692622965066L74.18181818181817,26.489633863622515L98.9090909090909,23.671302253549783L123.63636363636363,21.918273622339456L148.36363636363635,20.68036166104403L173.0909090909091,19.763390909541755L197.8181818181818,19.13500200618398L222.54545454545456,18.46345121210274L247.27272727272725,18.042731285095243" style="fill: none;" fill="none"></path></g><g><path stroke="rgb(238, 51, 119)" stroke-width="2px" d="M24.727272727272727,32.406786680221586L49.45454545454545,22.406422550028054L74.18181818181817,20.793633894486874L98.9090909090909,19.669003811749548L123.63636363636363,19.126909754493028L148.36363636363635,18.37445573373276L173.0909090909091,18.369064114310532L197.8181818181818,17.710997191342443L222.54545454545456,17.775725559754818L247.27272727272725,17.470968853343635" style="fill: none;" fill="none"></path></g><g><path stroke="rgb(51, 187, 238)" stroke-width="2px" d="M24.727272727272727,37.16964103958824L49.45454545454545,24.075847322290628L74.18181818181817,21.34111957116562L98.9090909090909,20.043880505995332L123.63636363636363,19.763390909541755L148.36363636363635,18.851821422576933L173.0909090909091,18.77090855078265L197.8181818181818,18.379847353154986L222.54545454545456,18.18297126076439L247.27272727272725,17.810785553672105" style="fill: none;" fill="none"></path></g><g><path stroke="rgb(204, 51, 17)" stroke-width="2px" d="M24.727272727272727,36.81093920360914L49.45454545454545,24.256548556414515L74.18181818181817,21.937149112874835L98.9090909090909,21.02017836137253L123.63636363636363,20.213788856159567L148.36363636363635,19.5368464426561L173.0909090909091,19.288725852966337L197.8181818181818,18.773609183051377L222.54545454545456,18.466151844371467L247.27272727272725,18.280058990825324" style="fill: none;" fill="none"></path></g><g><path stroke="rgb(0, 119, 187)" stroke-width="2px" d="M24.727272727272727,36.889151443134665L49.45454545454545,23.914031223817318L74.18181818181817,22.376754175532966L98.9090909090909,20.890731269663064L123.63636363636363,20.523937181992977L148.36363636363635,19.415481957522303L173.0909090909091,19.072974270040362L197.8181818181818,18.62257632342252L222.54545454545456,18.65224469791761L247.27272727272725,18.22881449352613" style="fill: none;" fill="none"></path></g><g><path stroke="rgb(255, 112, 67)" stroke-width="2px" d="M24.727272727272727,35.07409507578072L49.45454545454545,23.81154222921893L74.18181818181817,22.128633585843176L98.9090909090909,21.10379186543551L123.63636363636363,20.656094551086454L148.36363636363635,20.337844328446835L173.0909090909091,19.658210927789895L197.8181818181818,19.5341554555026L222.54545454545456,18.681913072412698L247.27272727272725,18.811360164122163" style="fill: none;" fill="none"></path></g><g><path stroke="rgb(187, 187, 187)" stroke-width="2px" d="M24.727272727272727,38.33203174851158L49.45454545454545,23.881662217053503L74.18181818181817,21.9155729900707L98.9090909090909,20.974335128610818L123.63636363636363,20.27042497288099L148.36363636363635,19.88745602694425L173.0909090909091,19.706754792820334L197.8181818181818,19.52066193927419L222.54545454545456,18.87069691311231L247.27272727272725,18.498511206020027" style="fill: none;" fill="none"></path></g></g></g></g></g></g><g transform="translate(58, 178)" clip-path="url(#clip_1)"><clipPath id="clip_1"><rect width="272" height="22"></rect></clipPath><g><g><line x1="0" y1="0" x2="0" y2="5" style="visibility: inherit;" fill="rgb(0, 0, 0)" stroke="rgb(204, 204, 204)" stroke-width="1px"></line><line x1="24.727272727272727" y1="0" x2="24.727272727272727" y2="5" style="visibility: inherit;" fill="rgb(0, 0, 0)" stroke="rgb(204, 204, 204)" stroke-width="1px"></line><line x1="49.45454545454545" y1="0" x2="49.45454545454545" y2="5" style="visibility: inherit;" fill="rgb(0, 0, 0)" stroke="rgb(204, 204, 204)" stroke-width="1px"></line><line x1="74.18181818181817" y1="0" x2="74.18181818181817" y2="5" style="visibility: inherit;" fill="rgb(0, 0, 0)" stroke="rgb(204, 204, 204)" stroke-width="1px"></line><line x1="98.9090909090909" y1="0" x2="98.9090909090909" y2="5" style="visibility: inherit;" fill="rgb(0, 0, 0)" stroke="rgb(204, 204, 204)" stroke-width="1px"></line><line x1="123.63636363636363" y1="0" x2="123.63636363636363" y2="5" style="visibility: inherit;" fill="rgb(0, 0, 0)" stroke="rgb(204, 204, 204)" stroke-width="1px"></line><line x1="148.36363636363635" y1="0" x2="148.36363636363635" y2="5" style="visibility: inherit;" fill="rgb(0, 0, 0)" stroke="rgb(204, 204, 204)" stroke-width="1px"></line><line x1="173.0909090909091" y1="0" x2="173.0909090909091" y2="5" style="visibility: inherit;" fill="rgb(0, 0, 0)" stroke="rgb(204, 204, 204)" stroke-width="1px"></line><line x1="197.8181818181818" y1="0" x2="197.8181818181818" y2="5" style="visibility: inherit;" fill="rgb(0, 0, 0)" stroke="rgb(204, 204, 204)" stroke-width="1px"></line><line x1="222.54545454545456" y1="0" x2="222.54545454545456" y2="5" style="visibility: inherit;" fill="rgb(0, 0, 0)" stroke="rgb(204, 204, 204)" stroke-width="1px"></line><line x1="247.27272727272725" y1="0" x2="247.27272727272725" y2="5" style="visibility: inherit;" fill="rgb(0, 0, 0)" stroke="rgb(204, 204, 204)" stroke-width="1px"></line><line x1="272" y1="0" x2="272" y2="5" style="visibility: inherit;" fill="rgb(0, 0, 0)" stroke="rgb(204, 204, 204)" stroke-width="1px"></line></g><g transform="translate(0, 8)"><text x="0" y="0" dx="0em" dy="0.95em" style="text-anchor: middle; visibility: hidden; font-family: &quot;Helvetica Neue&quot;, sans-serif; font-size: 12px; font-weight: 200;" fill="rgb(50, 49, 63)" stroke="none" stroke-width="1px">-1</text><text x="24.727272727272727" y="0" dx="0em" dy="0.95em" style="text-anchor: middle; visibility: inherit; font-family: &quot;Helvetica Neue&quot;, sans-serif; font-size: 12px; font-weight: 200;" fill="rgb(50, 49, 63)" stroke="none" stroke-width="1px">0</text><text x="49.45454545454545" y="0" dx="0em" dy="0.95em" style="text-anchor: middle; visibility: inherit; font-family: &quot;Helvetica Neue&quot;, sans-serif; font-size: 12px; font-weight: 200;" fill="rgb(50, 49, 63)" stroke="none" stroke-width="1px">1</text><text x="74.18181818181817" y="0" dx="0em" dy="0.95em" style="text-anchor: middle; visibility: inherit; font-family: &quot;Helvetica Neue&quot;, sans-serif; font-size: 12px; font-weight: 200;" fill="rgb(50, 49, 63)" stroke="none" stroke-width="1px">2</text><text x="98.9090909090909" y="0" dx="0em" dy="0.95em" style="text-anchor: middle; visibility: inherit; font-family: &quot;Helvetica Neue&quot;, sans-serif; font-size: 12px; font-weight: 200;" fill="rgb(50, 49, 63)" stroke="none" stroke-width="1px">3</text><text x="123.63636363636363" y="0" dx="0em" dy="0.95em" style="text-anchor: middle; visibility: inherit; font-family: &quot;Helvetica Neue&quot;, sans-serif; font-size: 12px; font-weight: 200;" fill="rgb(50, 49, 63)" stroke="none" stroke-width="1px">4</text><text x="148.36363636363635" y="0" dx="0em" dy="0.95em" style="text-anchor: middle; visibility: inherit; font-family: &quot;Helvetica Neue&quot;, sans-serif; font-size: 12px; font-weight: 200;" fill="rgb(50, 49, 63)" stroke="none" stroke-width="1px">5</text><text x="173.0909090909091" y="0" dx="0em" dy="0.95em" style="text-anchor: middle; visibility: inherit; font-family: &quot;Helvetica Neue&quot;, sans-serif; font-size: 12px; font-weight: 200;" fill="rgb(50, 49, 63)" stroke="none" stroke-width="1px">6</text><text x="197.8181818181818" y="0" dx="0em" dy="0.95em" style="text-anchor: middle; visibility: inherit; font-family: &quot;Helvetica Neue&quot;, sans-serif; font-size: 12px; font-weight: 200;" fill="rgb(50, 49, 63)" stroke="none" stroke-width="1px">7</text><text x="222.54545454545456" y="0" dx="0em" dy="0.95em" style="text-anchor: middle; visibility: inherit; font-family: &quot;Helvetica Neue&quot;, sans-serif; font-size: 12px; font-weight: 200;" fill="rgb(50, 49, 63)" stroke="none" stroke-width="1px">8</text><text x="247.27272727272725" y="0" dx="0em" dy="0.95em" style="text-anchor: middle; visibility: inherit; font-family: &quot;Helvetica Neue&quot;, sans-serif; font-size: 12px; font-weight: 200;" fill="rgb(50, 49, 63)" stroke="none" stroke-width="1px">9</text><text x="272" y="0" dx="0em" dy="0.95em" style="text-anchor: middle; visibility: hidden; font-family: &quot;Helvetica Neue&quot;, sans-serif; font-size: 12px; font-weight: 200;" fill="rgb(50, 49, 63)" stroke="none" stroke-width="1px">10</text></g><line x1="0" y1="0" x2="272" y2="0" fill="rgb(0, 0, 0)" stroke="rgb(204, 204, 204)" stroke-width="1px"></line></g></g></g></g></svg>